<svg width="21" height="21" viewBox="0 0 21 21" fill="none" xmlns="http://www.w3.org/2000/svg">
<path d="M18.6469 6.21523C18.6178 6.17692 18.5802 6.14585 18.5371 6.12444C18.494 6.10303 18.4466 6.09186 18.3984 6.0918H4.50391L3.69922 3.1957C3.68096 3.12994 3.64167 3.07196 3.58736 3.03062C3.53304 2.98929 3.46669 2.96687 3.39844 2.9668H1.52344C1.44056 2.9668 1.36107 2.99972 1.30247 3.05833C1.24386 3.11693 1.21094 3.19642 1.21094 3.2793C1.21094 3.36218 1.24386 3.44166 1.30247 3.50027C1.36107 3.55887 1.44056 3.5918 1.52344 3.5918H3.16406L5.96797 13.6973C6.06002 14.026 6.25688 14.3156 6.52861 14.5222C6.80034 14.7288 7.13209 14.841 7.47344 14.8418H15.1953C15.5367 14.841 15.8684 14.7288 16.1401 14.5222C16.4119 14.3156 16.6087 14.026 16.7008 13.6973L18.7031 6.48789C18.7155 6.44119 18.7168 6.39226 18.707 6.34495C18.6973 6.29764 18.6767 6.25324 18.6469 6.21523ZM16.0945 13.5301C16.0399 13.7269 15.9225 13.9004 15.7602 14.0244C15.5979 14.1483 15.3995 14.2159 15.1953 14.2168H7.47344C7.26854 14.2168 7.0693 14.1496 6.9062 14.0256C6.7431 13.9015 6.62512 13.7275 6.57031 13.5301L4.67734 6.7168H17.9875L16.0945 13.5301ZM8.08594 17.6543C8.08594 17.8397 8.03095 18.021 7.92794 18.1751C7.82493 18.3293 7.67851 18.4495 7.5072 18.5204C7.3359 18.5914 7.1474 18.61 6.96554 18.5738C6.78368 18.5376 6.61664 18.4483 6.48552 18.3172C6.35441 18.1861 6.26512 18.0191 6.22895 17.8372C6.19278 17.6553 6.21134 17.4668 6.2823 17.2955C6.35326 17.1242 6.47342 16.9778 6.62759 16.8748C6.78176 16.7718 6.96302 16.7168 7.14844 16.7168C7.39708 16.7168 7.63553 16.8156 7.81135 16.9914C7.98716 17.1672 8.08594 17.4057 8.08594 17.6543ZM16.2109 17.6543C16.2109 17.8397 16.156 18.021 16.0529 18.1751C15.9499 18.3293 15.8035 18.4495 15.6322 18.5204C15.4609 18.5914 15.2724 18.61 15.0905 18.5738C14.9087 18.5376 14.7416 18.4483 14.6105 18.3172C14.4794 18.1861 14.3901 18.0191 14.3539 17.8372C14.3178 17.6553 14.3363 17.4668 14.4073 17.2955C14.4783 17.1242 14.5984 16.9778 14.7526 16.8748C14.9068 16.7718 15.088 16.7168 15.2734 16.7168C15.5221 16.7168 15.7605 16.8156 15.9363 16.9914C16.1122 17.1672 16.2109 17.4057 16.2109 17.6543Z" fill="white"/>
</svg>
