<svg width="51" height="51" viewBox="0 0 51 51" fill="none" xmlns="http://www.w3.org/2000/svg">
<path d="M25.138 48.8717C22.0738 48.8717 19.0397 48.2682 16.2087 47.0956C13.3778 45.923 10.8056 44.2043 8.63886 42.0376C6.47216 39.8709 4.75344 37.2986 3.58083 34.4677C2.40822 31.6368 1.80469 28.6026 1.80469 25.5384C1.80469 22.4742 2.40822 19.4401 3.58083 16.6091C4.75344 13.7782 6.47216 11.206 8.63886 9.03925C10.8056 6.87255 13.3778 5.15383 16.2087 3.98122C19.0397 2.80861 22.0738 2.20508 25.138 2.20508C31.3264 2.20508 37.2613 4.66341 41.6372 9.03925C46.013 13.4151 48.4714 19.35 48.4714 25.5384C48.4714 31.7268 46.013 37.6617 41.6372 42.0376C37.2613 46.4134 31.3264 48.8717 25.138 48.8717ZM25.138 48.8717V22.2051C25.138 20.437 25.8404 18.7413 27.0906 17.491C28.3409 16.2408 30.0366 15.5384 31.8047 15.5384H33.4714M16.8047 28.8717H33.4714" stroke="white"/>
</svg>
