<svg width="51" height="51" viewBox="0 0 51 51" fill="none" xmlns="http://www.w3.org/2000/svg">
<g clip-path="url(#clip0_249_1659)">
<path d="M25.4974 49.2565C22.4332 49.2565 19.399 48.653 16.5681 47.4804C13.7372 46.3078 11.1649 44.589 8.99824 42.4223C6.83154 40.2556 5.11282 37.6834 3.94021 34.8525C2.7676 32.0215 2.16406 28.9874 2.16406 25.9232C2.16406 22.859 2.7676 19.8248 3.94021 16.9939C5.11282 14.163 6.83154 11.5907 8.99824 9.42402C11.1649 7.25732 13.7372 5.5386 16.5681 4.36599C19.399 3.19338 22.4332 2.58984 25.4974 2.58984C31.6858 2.58984 37.6207 5.04817 41.9966 9.42402C46.3724 13.7999 48.8307 19.7348 48.8307 25.9232C48.8307 32.1116 46.3724 38.0465 41.9966 42.4223C37.6207 46.7982 31.6858 49.2565 25.4974 49.2565ZM25.4974 49.2565V22.5898C25.4974 20.8217 26.1998 19.126 27.45 17.8758C28.7003 16.6256 30.396 15.9232 32.1641 15.9232H33.8307M17.1641 29.2565H33.8307" stroke="#212222" stroke-opacity="0.8" stroke-width="2.5"/>
</g>
<defs>
<clipPath id="clip0_249_1659">
<rect width="50" height="50" fill="white" transform="translate(0.5 0.921875)"/>
</clipPath>
</defs>
</svg>
