<svg width="60" height="61" viewBox="0 0 60 61" fill="none" xmlns="http://www.w3.org/2000/svg">
<path d="M46.0912 53.0991H13.9062C12.2486 53.0991 10.6589 52.4406 9.48683 51.2685C8.31473 50.0964 7.65625 48.5067 7.65625 46.8491V14.6641C7.65625 13.0065 8.31473 11.4167 9.48683 10.2446C10.6589 9.07254 12.2486 8.41406 13.9062 8.41406H46.0912C47.7489 8.41406 49.3386 9.07254 50.5107 10.2446C51.6828 11.4167 52.3412 13.0065 52.3412 14.6641V46.8491C52.3412 48.5067 51.6828 50.0964 50.5107 51.2685C49.3386 52.4406 47.7489 53.0991 46.0912 53.0991ZM13.9062 10.9141C12.9117 10.9141 11.9579 11.3092 11.2546 12.0124C10.5513 12.7157 10.1563 13.6695 10.1563 14.6641V46.8491C10.1563 47.8436 10.5513 48.7974 11.2546 49.5007C11.9579 50.204 12.9117 50.5991 13.9062 50.5991H46.0912C47.0858 50.5991 48.0396 50.204 48.7429 49.5007C49.4462 48.7974 49.8412 47.8436 49.8412 46.8491V14.6641C49.8412 13.6695 49.4462 12.7157 48.7429 12.0124C48.0396 11.3092 47.0858 10.9141 46.0912 10.9141H13.9062Z" fill="white"/>
<path d="M29.9984 42.2445C27.7269 42.2421 25.507 41.5662 23.6195 40.3023C21.732 39.0384 20.2615 37.2433 19.3941 35.1439C18.5266 33.0444 18.301 30.735 18.7459 28.5074C19.1907 26.2798 20.2861 24.2341 21.8934 22.6288C23.5007 21.0236 25.5478 19.931 27.776 19.489C30.0041 19.0471 32.3133 19.2757 34.4116 20.1459C36.5099 21.0161 38.3031 22.4889 39.5645 24.378C40.8259 26.2672 41.4989 28.4879 41.4984 30.7595C41.4945 33.8069 40.2811 36.7281 38.1249 38.8816C35.9686 41.035 33.0458 42.2445 29.9984 42.2445ZM29.9984 21.7595C28.2219 21.762 26.486 22.2909 25.01 23.2794C23.5339 24.2679 22.3839 25.6717 21.7052 27.3134C21.0265 28.9552 20.8496 30.7612 21.1968 32.5035C21.5439 34.2457 22.3997 35.846 23.6558 37.1021C24.912 38.3583 26.5123 39.214 28.2545 39.5612C29.9967 39.9084 31.8028 39.7315 33.4445 39.0528C35.0863 38.3741 36.4901 37.2241 37.4786 35.748C38.4671 34.2719 38.996 32.536 38.9984 30.7595C38.9984 28.3726 38.0502 26.0834 36.3624 24.3956C34.6746 22.7077 32.3854 21.7595 29.9984 21.7595Z" fill="white"/>
<path d="M43 20.5195C44.4843 20.5195 45.6875 19.3163 45.6875 17.832C45.6875 16.3478 44.4843 15.1445 43 15.1445C41.5157 15.1445 40.3125 16.3478 40.3125 17.832C40.3125 19.3163 41.5157 20.5195 43 20.5195Z" fill="white"/>
</svg>
