<svg width="25" height="25" viewBox="0 0 25 25" fill="none" xmlns="http://www.w3.org/2000/svg">
<path d="M1.95312 7.8131H12.5219C12.6174 8.67302 13.0266 9.46752 13.6713 10.0446C14.316 10.6216 15.1508 10.9407 16.016 10.9407C16.8812 10.9407 17.716 10.6216 18.3607 10.0446C19.0054 9.46752 19.4146 8.67302 19.5102 7.8131H23.0469C23.1505 7.8131 23.2498 7.77194 23.3231 7.69869C23.3963 7.62543 23.4375 7.52607 23.4375 7.42247C23.4375 7.31887 23.3963 7.21952 23.3231 7.14626C23.2498 7.073 23.1505 7.03185 23.0469 7.03185H19.5102C19.4146 6.17193 19.0054 5.37743 18.3607 4.80039C17.716 4.22335 16.8812 3.9043 16.016 3.9043C15.1508 3.9043 14.316 4.22335 13.6713 4.80039C13.0266 5.37743 12.6174 6.17193 12.5219 7.03185H1.95312C1.84952 7.03185 1.75017 7.073 1.67691 7.14626C1.60366 7.21952 1.5625 7.31887 1.5625 7.42247C1.5625 7.52607 1.60366 7.62543 1.67691 7.69869C1.75017 7.77194 1.84952 7.8131 1.95312 7.8131ZM16.0156 4.6881C16.3747 4.6881 16.7303 4.75883 17.062 4.89624C17.3938 5.03366 17.6952 5.23507 17.9491 5.48898C18.203 5.74289 18.4044 6.04432 18.5419 6.37607C18.6793 6.70782 18.75 7.06339 18.75 7.42247C18.75 7.78156 18.6793 8.13712 18.5419 8.46887C18.4044 8.80062 18.203 9.10206 17.9491 9.35597C17.6952 9.60988 17.3938 9.81129 17.062 9.94871C16.7303 10.0861 16.3747 10.1568 16.0156 10.1568C15.2904 10.1568 14.5949 9.86876 14.0821 9.35597C13.5693 8.84317 13.2812 8.14768 13.2812 7.42247C13.2812 6.69727 13.5693 6.00177 14.0821 5.48898C14.5949 4.97618 15.2904 4.6881 16.0156 4.6881ZM12.4789 17.9693C12.3842 18.83 11.9752 19.6254 11.3304 20.2032C10.6856 20.7809 9.85019 21.1004 8.98438 21.1004C8.11856 21.1004 7.28318 20.7809 6.63834 20.2032C5.9935 19.6254 5.58455 18.83 5.48984 17.9693H1.95312C1.84952 17.9693 1.75017 17.9282 1.67691 17.8549C1.60366 17.7817 1.5625 17.6823 1.5625 17.5787C1.5625 17.4751 1.60366 17.3758 1.67691 17.3025C1.75017 17.2293 1.84952 17.1881 1.95312 17.1881H5.48984C5.58455 16.3275 5.9935 15.5321 6.63834 14.9543C7.28318 14.3765 8.11856 14.057 8.98438 14.057C9.85019 14.057 10.6856 14.3765 11.3304 14.9543C11.9752 15.5321 12.3842 16.3275 12.4789 17.1881H23.0469C23.1505 17.1881 23.2498 17.2293 23.3231 17.3025C23.3963 17.3758 23.4375 17.4751 23.4375 17.5787C23.4375 17.6823 23.3963 17.7817 23.3231 17.8549C23.2498 17.9282 23.1505 17.9693 23.0469 17.9693H12.4789ZM6.25 17.5787C6.25 18.3039 6.53809 18.9994 7.05088 19.5122C7.56367 20.025 8.25917 20.3131 8.98438 20.3131C9.70958 20.3131 10.4051 20.025 10.9179 19.5122C11.4307 18.9994 11.7187 18.3039 11.7188 17.5787C11.7187 16.8535 11.4307 16.158 10.9179 15.6452C10.4051 15.1324 9.70958 14.8443 8.98438 14.8443C8.25917 14.8443 7.56367 15.1324 7.05088 15.6452C6.53809 16.158 6.25 16.8535 6.25 17.5787Z" fill="white"/>
</svg>
