<svg width="31" height="30" viewBox="0 0 31 30" fill="none" xmlns="http://www.w3.org/2000/svg">
<g clip-path="url(#clip0_250_2530)">
<path d="M15.375 0C7.09078 0 0.375 6.71578 0.375 15C0.375 23.2847 7.09078 30 15.375 30C23.6597 30 30.375 23.2847 30.375 15C30.375 6.71578 23.6597 0 15.375 0ZM15.375 28.1545C8.13797 28.1545 2.25 22.237 2.25 14.9999C2.25 7.76291 8.13797 1.87494 15.375 1.87494C22.612 1.87494 28.5 7.76294 28.5 14.9999C28.5 22.2369 22.612 28.1545 15.375 28.1545ZM21.9375 14.0625H16.3125V8.4375C16.3125 7.92 15.8925 7.5 15.375 7.5C14.8575 7.5 14.4375 7.92 14.4375 8.4375V14.0625H8.8125C8.295 14.0625 7.875 14.4825 7.875 15C7.875 15.5175 8.295 15.9375 8.8125 15.9375H14.4375V21.5625C14.4375 22.08 14.8575 22.5 15.375 22.5C15.8925 22.5 16.3125 22.08 16.3125 21.5625V15.9375H21.9375C22.455 15.9375 22.875 15.5175 22.875 15C22.875 14.4825 22.455 14.0625 21.9375 14.0625Z" fill="white"/>
</g>
<defs>
<clipPath id="clip0_250_2530">
<rect width="30" height="30" fill="white" transform="translate(0.375)"/>
</clipPath>
</defs>
</svg>
