<svg width="21" height="21" viewBox="0 0 21 21" fill="none" xmlns="http://www.w3.org/2000/svg">
<path d="M17.7736 18.2795L14.1544 14.6603M14.1544 14.6603C14.7735 14.0412 15.2646 13.3063 15.5996 12.4974C15.9347 11.6886 16.1071 10.8216 16.1071 9.94613C16.1071 9.07063 15.9347 8.2037 15.5996 7.39485C15.2646 6.58599 14.7735 5.85104 14.1544 5.23197C13.5354 4.6129 12.8004 4.12182 11.9916 3.78678C11.1827 3.45174 10.3158 3.2793 9.44028 3.2793C8.56477 3.2793 7.69784 3.45174 6.88899 3.78678C6.08013 4.12182 5.34518 4.6129 4.72611 5.23197C3.47583 6.48224 2.77344 8.17798 2.77344 9.94613C2.77344 11.7143 3.47583 13.41 4.72611 14.6603C5.97638 15.9106 7.67212 16.613 9.44028 16.613C11.2084 16.613 12.9042 15.9106 14.1544 14.6603Z" stroke="white" stroke-linecap="round" stroke-linejoin="round"/>
</svg>
