<svg width="31" height="31" viewBox="0 0 31 31" fill="none" xmlns="http://www.w3.org/2000/svg">
<path d="M15.2734 28.2793C22.177 28.2793 27.7734 22.6829 27.7734 15.7793C27.7734 8.87574 22.177 3.2793 15.2734 3.2793C8.36988 3.2793 2.77344 8.87574 2.77344 15.7793C2.77344 22.6829 8.36988 28.2793 15.2734 28.2793Z" stroke="white" stroke-linecap="round" stroke-linejoin="round"/>
<path d="M9.64844 22.0293C12.5634 18.9768 17.9522 18.833 20.8984 22.0293M18.3922 12.6543C18.3922 14.3793 16.9922 15.7793 15.2634 15.7793C14.8526 15.78 14.4457 15.6996 14.066 15.5429C13.6863 15.3861 13.3412 15.156 13.0505 14.8658C12.7598 14.5755 12.5292 14.2308 12.3718 13.8513C12.2144 13.4719 12.1334 13.0651 12.1334 12.6543C12.1334 10.9293 13.5334 9.5293 15.2634 9.5293C15.6741 9.52881 16.0809 9.60927 16.4605 9.7661C16.8401 9.92292 17.185 10.153 17.4756 10.4433C17.7662 10.7335 17.9967 11.0782 18.154 11.4575C18.3112 11.8369 18.3922 12.2436 18.3922 12.6543Z" stroke="#FFE8D6" stroke-linecap="round" stroke-linejoin="round"/>
</svg>
