<svg width="30" height="31" viewBox="0 0 30 31" fill="none" xmlns="http://www.w3.org/2000/svg">
<path d="M15 28.0254C21.9036 28.0254 27.5 22.4289 27.5 15.5254C27.5 8.62183 21.9036 3.02539 15 3.02539C8.09644 3.02539 2.5 8.62183 2.5 15.5254C2.5 22.4289 8.09644 28.0254 15 28.0254Z" stroke="#747E62" stroke-linecap="round" stroke-linejoin="round"/>
<path d="M9.375 21.7754C12.29 18.7229 17.6787 18.5791 20.625 21.7754M18.1187 12.4004C18.1187 14.1254 16.7187 15.5254 14.99 15.5254C14.5792 15.5261 14.1723 15.4457 13.7926 15.289C13.4129 15.1322 13.0678 14.9021 12.7771 14.6119C12.4863 14.3216 12.2557 13.9769 12.0984 13.5974C11.941 13.218 11.86 12.8112 11.86 12.4004C11.86 10.6754 13.26 9.27539 14.99 9.27539C15.4007 9.2749 15.8075 9.35537 16.187 9.51219C16.5666 9.66902 16.9116 9.89913 17.2021 10.1894C17.4927 10.4796 17.7232 10.8243 17.8805 11.2036C18.0378 11.583 18.1188 11.9897 18.1187 12.4004Z" stroke="#212222" stroke-opacity="0.8" stroke-linecap="round" stroke-linejoin="round"/>
</svg>
